<?xml version='1.0' encoding='utf-8'?>
<svg xmlns="http://www.w3.org/2000/svg" viewBox="0 0 67.34 72.69" width="100%" height="100%" preserveAspectRatio="none" role="img" aria-label="Bas Rhin"><title>Bas Rhin</title><g id="silhouette" stroke="#FFFFFF" stroke-width="1.1" stroke-linejoin="round" vector-effect="non-scaling-stroke"><path d="M 0.0000 11.5722 L 1.2310 10.7320 L 1.7751 8.7061 L 4.0424 9.0012 L 4.3657 5.8901 L 5.1380 5.0963 L 5.2384 3.3183 L 6.4909 1.8136 L 5.9340 0.5546 L 7.8202 0.0000 L 8.0417 2.3435 L 8.6424 2.8160 L 9.2242 5.3020 L 11.5300 5.1668 L 13.3784 7.1694 L 14.7872 6.5806 L 17.8411 7.8185 L 19.5757 9.9680 L 21.2640 8.8834 L 23.0269 9.2563 L 26.1542 8.0933 L 27.6269 8.5941 L 28.8027 9.9004 L 30.4572 10.7196 L 32.8370 8.8987 L 33.5131 6.1299 L 34.4801 4.0336 L 36.0868 1.9088 L 35.8363 1.5243 L 37.9037 2.2192 L 39.6343 1.5323 L 40.9474 2.2716 L 42.9084 2.0135 L 44.2350 0.6382 L 48.1468 3.0486 L 49.3508 2.0244 L 50.6733 2.5296 L 51.6181 1.2459 L 53.1164 2.3799 L 54.0134 3.6614 L 54.8915 3.4913 L 57.6599 4.5715 L 59.8821 6.4709 L 62.4350 7.2944 L 66.8073 7.4834 L 67.3400 8.1689 L 65.3878 8.9896 L 62.3999 13.8147 L 61.6329 15.5070 L 60.1427 20.1031 L 58.1723 21.7467 L 56.6006 21.9248 L 56.2680 23.3059 L 55.3259 24.0357 L 53.4686 24.2901 L 53.1212 26.8880 L 49.3117 31.3279 L 46.6195 32.9831 L 46.0343 34.7873 L 44.7400 36.7208 L 44.5333 37.7610 L 44.8915 42.1493 L 44.2410 43.5987 L 42.8437 44.5459 L 42.6693 47.0588 L 41.1447 51.0618 L 40.9353 53.2534 L 41.6222 56.2817 L 41.0006 57.6439 L 39.4148 58.3286 L 37.5508 64.7988 L 36.4013 65.9393 L 35.4747 67.9666 L 34.0370 69.7933 L 33.8215 71.7160 L 32.7804 72.6900 L 29.7252 72.2524 L 29.3650 70.2549 L 27.5158 69.9314 L 26.9953 68.9843 L 27.4889 66.3514 L 25.7865 65.2938 L 23.9017 64.7842 L 23.3259 64.1438 L 20.8094 62.9910 L 19.4539 63.1691 L 18.8269 61.3976 L 16.8518 58.6012 L 15.0882 58.8149 L 12.7973 58.2022 L 12.0875 56.2446 L 8.6963 56.4583 L 6.4835 55.1077 L 8.0390 53.1328 L 7.3980 49.3194 L 8.5057 44.9101 L 7.4943 44.7014 L 8.8370 42.7221 L 6.5946 42.7919 L 5.7434 41.9748 L 6.5273 40.9826 L 8.3737 40.9085 L 10.0983 41.7037 L 11.1959 41.6543 L 12.4916 40.0391 L 13.8532 39.7454 L 15.8552 36.9999 L 15.8606 36.0215 L 17.0229 34.2159 L 16.5993 33.8088 L 18.3892 31.5482 L 16.2936 31.3577 L 15.1158 29.1167 L 16.0599 28.9502 L 16.4007 27.4325 L 17.4687 26.1270 L 18.4996 23.2484 L 17.6976 21.3520 L 16.1582 21.0648 L 14.3986 18.7577 L 12.7124 18.7373 L 12.6707 17.8156 L 10.2209 17.4870 L 10.0761 19.2708 L 8.8370 20.5516 L 6.9919 21.4668 L 6.5246 19.8240 L 5.2175 19.8502 L 5.0498 17.3671 L 6.9104 17.2559 L 6.6229 16.0092 L 4.9926 16.3720 L 4.6848 15.2903 L 1.7589 13.9441 L 0.4774 12.9286 L 0.0000 11.5722 Z" vector-effect="non-scaling-stroke" /></g></svg>