<?xml version='1.0' encoding='utf-8'?>
<svg xmlns="http://www.w3.org/2000/svg" viewBox="0 0 79.37 62.27" width="100%" height="100%" preserveAspectRatio="none" role="img" aria-label="Eure"><title>Eure</title><g id="silhouette" stroke="#FFFFFF" stroke-width="1.1" stroke-linejoin="round" vector-effect="non-scaling-stroke"><path d="M 0.0000 4.0961 L 2.2017 3.2524 L 3.7732 3.0213 L 7.0806 1.8787 L 10.1673 0.0000 L 12.0055 0.4371 L 14.8589 3.6988 L 16.2931 4.1845 L 17.7614 3.7455 L 19.1147 5.1391 L 19.4052 6.2189 L 25.1182 4.9934 L 26.6929 5.1030 L 27.9073 6.7494 L 29.7153 6.7264 L 31.0051 7.6275 L 32.7346 7.4799 L 32.9076 11.0548 L 31.1249 10.4937 L 29.9987 10.7684 L 29.7907 11.9029 L 31.3329 12.7305 L 31.3837 13.7592 L 33.7100 12.3388 L 34.9157 15.0500 L 37.7531 17.6305 L 39.9017 16.4231 L 40.4477 15.3695 L 39.5945 14.2468 L 41.9502 13.2330 L 44.1154 13.2430 L 44.2194 12.0791 L 45.5004 10.7926 L 47.5442 10.1207 L 51.3992 10.4651 L 52.1310 9.1774 L 52.5088 6.7532 L 53.2930 6.7258 L 53.3755 4.1821 L 54.7343 3.8022 L 55.2526 2.7094 L 57.0067 1.9951 L 62.2094 2.4603 L 63.5992 3.4703 L 64.9056 3.1714 L 67.4264 3.3433 L 69.0511 5.5445 L 69.7948 5.2761 L 71.8108 6.4493 L 74.6911 5.6684 L 75.0277 6.7656 L 77.0849 8.7925 L 77.8651 11.3487 L 77.5389 12.4820 L 77.9517 14.0294 L 79.3700 16.1304 L 78.6771 17.9655 L 77.3492 16.8061 L 75.7761 16.3552 L 74.5094 16.7008 L 74.1863 19.1599 L 72.5902 20.8324 L 72.0783 25.1677 L 71.6251 26.9361 L 70.5322 28.1448 L 69.1479 30.9195 L 68.7749 30.4158 L 66.4216 31.5497 L 65.4175 31.3424 L 62.6150 32.9271 L 61.3451 32.0740 L 60.6411 33.4122 L 61.1855 34.8519 L 62.2039 35.5755 L 62.2039 38.4723 L 63.2761 38.4137 L 63.4928 41.3479 L 61.3721 41.6144 L 60.6871 42.6226 L 61.8983 44.6420 L 61.0395 46.7386 L 58.6338 47.4373 L 56.1463 49.4928 L 55.9439 50.8453 L 56.9258 52.7253 L 53.8986 55.0728 L 52.8834 54.5716 L 51.2976 55.3381 L 50.0221 54.4084 L 46.7910 54.1836 L 45.4600 54.4053 L 45.0710 53.1979 L 43.4519 52.9214 L 43.3067 55.5585 L 42.0986 56.0063 L 40.1652 55.3929 L 37.7936 57.5773 L 35.0188 57.7585 L 34.6918 58.4398 L 31.9059 58.9074 L 30.5511 58.5382 L 29.7757 60.7052 L 27.9660 61.1877 L 27.2882 61.9923 L 25.5690 62.2700 L 24.6134 61.6031 L 24.7174 59.9629 L 23.5229 58.4304 L 25.1873 56.8587 L 23.9134 55.1843 L 24.3158 54.5386 L 22.9189 53.2060 L 20.6529 52.5092 L 19.5853 51.4867 L 16.3780 49.6217 L 16.5407 48.0419 L 14.8049 44.9608 L 13.4588 46.3413 L 10.8038 46.1421 L 9.4315 45.4783 L 8.2434 45.9864 L 6.4766 45.3768 L 6.5552 44.5797 L 4.6900 43.6830 L 4.9328 42.4090 L 6.0940 40.6187 L 6.9377 39.4375 L 7.2084 36.4784 L 7.8584 35.7150 L 6.7845 34.4197 L 4.9019 34.2360 L 4.2415 33.0872 L 4.3304 31.6911 L 5.8297 30.9582 L 5.4035 29.1940 L 6.8274 25.6596 L 4.6749 25.1154 L 5.1408 20.9700 L 3.6550 20.4034 L 2.1192 19.2147 L 1.2604 17.9456 L 4.5106 16.7351 L 4.4066 15.3352 L 3.5677 14.3588 L 1.3604 14.2218 L 0.7826 12.2965 L 1.3818 10.8954 L 0.2365 8.5584 L 0.6111 7.2962 L 0.0000 4.0961 Z" vector-effect="non-scaling-stroke" /></g></svg>