<?xml version='1.0' encoding='utf-8'?>
<svg xmlns="http://www.w3.org/2000/svg" viewBox="0 0 64.1 59.93" width="100%" height="100%" preserveAspectRatio="none" role="img" aria-label="Lot et Garonne"><title>Lot et Garonne</title><g id="silhouette" stroke="#FFFFFF" stroke-width="1.1" stroke-linejoin="round" vector-effect="non-scaling-stroke"><path d="M 0.0000 40.8405 L 1.0833 40.0524 L 2.7749 39.8912 L 4.6037 37.8410 L 5.6786 37.3867 L 5.5818 35.4816 L 4.2800 33.6028 L 2.8960 32.3652 L 3.2620 31.1396 L 5.8376 30.6194 L 6.7779 29.7966 L 8.1933 30.1550 L 8.3785 28.3816 L 7.2651 27.1938 L 6.7831 25.9215 L 7.8144 24.0175 L 6.9087 23.1174 L 6.6023 19.6037 L 8.3715 17.7195 L 9.3599 15.8910 L 11.1457 16.2296 L 11.9611 14.1752 L 15.5904 11.2129 L 17.0480 7.7136 L 15.9673 6.9938 L 14.8802 7.3738 L 14.5026 6.1350 L 13.2117 5.9481 L 12.8040 4.8034 L 13.6289 3.7714 L 14.4507 4.3935 L 15.4840 2.4236 L 17.6538 1.4593 L 18.0384 2.9827 L 19.2999 0.0264 L 20.8998 0.9277 L 23.0927 0.0000 L 24.4612 1.1177 L 25.6688 3.0289 L 25.3708 4.5145 L 26.3771 5.4327 L 25.8496 7.7855 L 26.8720 7.7058 L 29.4309 8.8433 L 30.9129 8.3476 L 32.2244 7.0651 L 33.1198 7.2863 L 34.6044 6.3975 L 36.2120 7.4409 L 37.4908 6.6600 L 37.8453 5.2025 L 39.5632 5.0994 L 40.6362 4.3623 L 41.8970 4.9952 L 42.2624 6.5234 L 45.8546 6.5695 L 48.5314 6.0128 L 49.4743 4.6122 L 51.0178 5.3649 L 50.9698 6.5761 L 51.8825 7.5302 L 51.5114 9.4276 L 50.4909 10.3104 L 51.5652 11.1410 L 51.6332 12.3120 L 53.2844 12.5733 L 54.3786 11.2249 L 56.9073 9.3419 L 59.6553 9.5379 L 60.9162 11.2938 L 64.0038 12.7046 L 64.1000 14.0961 L 63.9186 14.8189 L 61.7065 16.0283 L 59.2117 16.5227 L 60.9944 19.5420 L 60.6142 21.5101 L 61.3514 21.8613 L 61.2655 24.2231 L 61.7187 25.0483 L 63.1693 25.5020 L 63.3359 27.3353 L 62.8494 28.2132 L 63.5173 29.2482 L 62.7642 30.4576 L 59.9322 30.0004 L 59.1175 30.7794 L 57.5054 30.6770 L 55.9164 28.8185 L 54.7722 29.0307 L 54.1985 30.1730 L 54.6613 31.7084 L 53.2652 34.5167 L 54.6094 35.4762 L 55.7324 35.0644 L 56.1298 36.0934 L 57.5272 37.1380 L 55.8728 39.9362 L 56.4080 40.5474 L 55.1395 43.0573 L 52.7408 43.4067 L 52.4191 44.7611 L 53.4030 45.3017 L 54.2587 46.7574 L 53.2203 48.4678 L 50.6743 47.1787 L 49.3358 46.9983 L 49.3961 49.3206 L 47.1718 50.0979 L 46.3481 52.3662 L 46.5302 53.1261 L 44.7335 53.6739 L 43.6720 54.5980 L 43.1143 56.0399 L 40.7189 54.3229 L 40.5202 53.4749 L 39.1677 52.4777 L 37.8113 52.3638 L 37.2088 53.5822 L 35.8037 54.0599 L 33.0301 53.6296 L 31.6436 53.8855 L 30.7436 55.9033 L 28.2136 56.5721 L 27.5316 57.6095 L 26.2688 56.8472 L 23.2106 58.6475 L 19.8172 57.4495 L 19.2640 56.6344 L 17.4121 56.9796 L 16.2090 58.3365 L 16.0359 59.9300 L 14.6898 59.8575 L 14.8488 58.5013 L 11.4265 59.3804 L 10.7226 58.0314 L 12.3899 53.0950 L 12.7835 51.4026 L 14.6257 49.7221 L 14.5770 48.6302 L 9.2413 48.1382 L 7.2305 46.6711 L 4.2614 46.6016 L 1.8717 46.2720 L 0.6083 46.4799 L 0.5910 42.5587 L 0.0000 40.8405 Z" vector-effect="non-scaling-stroke" /></g></svg>